#!OML:ASF F:\VICON\USERDATA\INSTALL\rory3\rory3.ASF
:FULLY-SPECIFIED
:DEGREES
356
root 0.131369 18.1156 30.2924 -6.86239 -1.05235 -4.90947
lowerback 17.7648 -0.662231 2.71849
upperback 0.840528 0.00662764 3.53334
thorax -9.08117 -0.0288449 2.28645
lowerneck -10.9393 0.0402728 -2.04118
upperneck 30.8256 1.19641 -2.12545
head 11.9094 0.033112 -0.282362
rclavicle 1.61513e-015 4.77083e-015
rhumerus -31.5741 -7.97595 -77.1863
rradius 34.1658
rwrist -1.51529
rhand -13.8071 10.8056
rfingers 7.12502
rthumb 12.3151 -18.8118
lclavicle 1.61513e-015 4.77083e-015
lhumerus -40.9542 2.46459 87.9899
lradius 41.4139
lwrist 5.20994
lhand -10.8991 51.7195
lfingers 7.12502
lthumb 15.1177 81.1474
rfemur -7.53282 3.93102 32.0403
rtibia 29.8874
rfoot -12.2176 -9.73805
rtoes 16.8773
lfemur -16.4923 0.63166 -14.305
ltibia 66.2986
lfoot -3.76925 -2.6083
ltoes -19.5406
357
root 0.121387 18.097 30.4278 -6.93213 -1.21778 -4.97497
lowerback 17.1091 -0.565979 2.66975
upperback 1.51719 0.0615734 3.57992
thorax -7.9779 0.00194705 2.32187
lowerneck -11.6048 -0.0965948 -2.23874
upperneck 30.61 1.01842 -1.97689
head 11.9594 -0.0519569 -0.21483
rclavicle 7.25564e-015 8.34896e-015
rhumerus -30.0454 -7.90006 -77.3695
rradius 34.3572
rwrist -2.40362
rhand -14.2167 10.9941
rfingers 7.12502
rthumb 11.9201 -18.6465
lclavicle 7.25564e-015 8.34896e-015
lhumerus -39.8472 2.72854 88.0035
lradius 41.4276
lwrist 5.69432
lhand -11.1372 51.8206
lfingers 7.12502
lthumb 14.8884 81.2656
rfemur -7.03732 4.33079 32.3183
rtibia 30.1002
rfoot -12.6496 -10.1721
rtoes 17.0403
lfemur -17.5226 1.00292 -14.1357
ltibia 65.907
lfoot -4.73047 -2.17896
ltoes -18.0195
358
root 0.132675 18.078 30.5572 -6.75106 -0.902654 -4.81325
lowerback 17.551 -0.643156 2.86581
upperback 1.05436 0.027445 3.39783
thorax -8.72706 -0.027037 2.0403
lowerneck -11.1236 -0.126095 -2.18479
upperneck 30.6939 0.933707 -1.93014
head 11.8925 -0.0756456 -0.218202
rclavicle -6.11263e-015 2.78299e-014
rhumerus -30.4874 -7.85972 -77.2198
rradius 34.9784
rwrist -2.7807
rhand -14.2869 10.5117
rfingers 7.12502
rthumb 11.8524 -19.1329
lclavicle -6.11263e-015 2.78299e-014
lhumerus -40.4516 2.62596 87.9747
lradius 41.5953
lwrist 6.0344
lhand -11.1104 52.3444
lfingers 7.12502
lthumb 14.9141 81.7875
rfemur -6.86068 3.92493 32.0922
rtibia 30.3096
rfoot -13.1244 -10.1637
rtoes 16.5728
lfemur -18.7648 0.889576 -14.4923
ltibia 65.3523
lfoot -5.60954 -1.54198
ltoes -16.8398
359
root 0.112174 18.0588 30.6959 -6.98797 -1.27203 -5.50392
lowerback 18.1672 -0.538915 3.36463
upperback 0.78967 0.335908 3.62389
thorax -9.36682 0.102058 1.94251
lowerneck -10.6667 -0.100421 -2.02605
upperneck 30.9457 0.975041 -2.09161
head 11.9 -0.0590534 -0.30199
rclavicle -1.26228e-014 -5.20816e-014
rhumerus -30.9617 -7.73833 -76.9679
rradius 35.4407
rwrist -2.96629
rhand -14.3705 10.164
rfingers 7.12502
rthumb 11.7718 -19.4852
lclavicle -1.26228e-014 -5.20816e-014
lhumerus -41 2.45331 88.1381
lradius 41.529
lwrist 6.70964
lhand -11.7786 52.0754
lfingers 7.12502
lthumb 14.2703 81.5651
rfemur -6.22918 4.67188 33.1797
rtibia 30.4667
rfoot -13.5032 -10.9365
rtoes 16.517
lfemur -19.484 1.40084 -13.5287
ltibia 64.7551
lfoot -6.55609 -1.38088
ltoes -15.4032
360
root 0.0989924 18.0477 30.8357 -7.14813 -1.46495 -5.66645
lowerback 17.3002 -0.420692 3.4284
upperback 1.62426 0.412917 3.68981
thorax -7.9708 0.147916 1.92728
lowerneck -11.7148 -0.188723 -2.00654
upperneck 30.9743 0.867562 -2.0513
head 12.1291 -0.10665 -0.305758
rclavicle -5.889e-015 -1.66979e-014
rhumerus -29.3552 -8.07168 -77.0453
rradius 35.5437
rwrist -3.15032
rhand -14.3265 9.63468
rfingers 7.12502
rthumb 11.8143 -20.0121
lclavicle -5.889e-015 -1.66979e-014
lhumerus -39.7618 2.42611 88.3245
lradius 41.4032
lwrist 7.37183
lhand -12.8096 51.0039
lfingers 7.12502
lthumb 13.2767 80.5611
rfemur -5.65737 5.14219 33.6012
rtibia 30.5807
rfoot -13.8185 -11.4527
rtoes 15.9984
lfemur -20.1916 1.69934 -13.3009
ltibia 63.935
lfoot -7.40265 -1.02175
ltoes -15.9439
361
root 0.0993672 18.0332 30.9798 -7.2075 -1.41528 -5.73809
lowerback 17.8635 -0.459051 3.60456
upperback 1.20539 0.451207 3.64801
thorax -8.73955 0.152751 1.78903
lowerneck -11.1825 -0.158293 -1.71227
upperneck 31.1465 0.875496 -2.20948
head 12.0884 -0.0876024 -0.416094
rclavicle 3.8763e-015 -1.63003e-014
rhumerus -29.9238 -7.53444 -77.0133
rradius 36.2083
rwrist -3.80912
rhand -14.274 9.41916
rfingers 7.12502
rthumb 11.8649 -20.2247
lclavicle 3.8763e-015 -1.63003e-014
lhumerus -40.6542 2.49433 88.2778
lradius 41.7172
lwrist 7.50104
lhand -13.054 50.4628
lfingers 7.12502
lthumb 13.0412 80.0351
rfemur -5.04599 5.21314 33.794
rtibia 30.5704
rfoot -14.4083 -11.7168
rtoes 15.2245
lfemur -20.9768 1.70369 -13.3161
ltibia 62.9743
lfoot -8.21814 -0.57768
ltoes -17.338
362
root 0.103261 18.0125 31.1238 -7.24003 -1.40023 -6.00447
lowerback 17.9656 -0.516781 4.02594
upperback 1.12156 0.472232 3.65759
thorax -8.88589 0.144851 1.55843
lowerneck -10.8475 -0.124107 -1.76894
upperneck 30.9002 0.913371 -2.17881
head 11.9195 -0.0675555 -0.387203
rclavicle -5.2181e-016 -9.14409e-015
rhumerus -29.9036 -7.1192 -77.0264
rradius 36.7132
rwrist -4.30999
rhand -14.1846 9.48415
rfingers 7.12502
rthumb 11.9511 -20.1547
lclavicle -5.2181e-016 -9.14409e-015
lhumerus -40.9124 2.5697 88.281
lradius 42.0129
lwrist 7.28581
lhand -12.9239 50.6174
lfingers 7.12502
lthumb 13.1666 80.1817
rfemur -4.39151 5.1742 34.1784
rtibia 30.6051
rfoot -15.1424 -11.8924
rtoes 15.0445
lfemur -21.7091 1.75462 -13.1149
ltibia 61.8926
lfoot -8.89626 -0.0781041
ltoes -18.7671
